<?xml version="1.0" encoding="utf-8"?>
<!-- Svg Vector Icons : http://www.onlinewebfonts.com/icon -->
<!DOCTYPE svg PUBLIC "-//W3C//DTD SVG 1.1//EN" "http://www.w3.org/Graphics/SVG/1.1/DTD/svg11.dtd">
<svg version="1.1" xmlns="http://www.w3.org/2000/svg" xmlns:xlink="http://www.w3.org/1999/xlink" x="0px" y="0px" viewBox="0 0 256 256" enable-background="new 0 0 256 256" xml:space="preserve">
<metadata> Svg Vector Icons : http://www.onlinewebfonts.com/icon </metadata>
<g><g><g><path fill="#000000" d="M115.5,10.5c-14.6,1.8-27.2,5.6-40.1,12C52.1,34.1,34.1,52.1,22.6,75.3c-9.1,18.3-13.3,37.4-12.5,57.2c1.1,24.7,8.8,46.5,23.3,66.1c18.1,24.5,45.6,41.1,76,46.1c9.6,1.6,27.7,1.6,37.3,0c50.5-8.3,89.7-47.5,98-98c1.6-9.6,1.6-27.7,0-37.3c-8.3-50-46.8-89-96.5-97.7C140,10.2,122.9,9.6,115.5,10.5z M139.4,23.2c57.8,6.3,99.9,58.6,93.6,116.1c-3.5,32.1-22.2,61.8-49.4,78.4c-20.3,12.4-43.6,17.7-66.7,15.2c-57.7-6.3-99.9-58.7-93.6-116.1C24.7,103.5,27.5,94,33.9,81C44.1,60.4,60.4,44,81,33.9C100.3,24.4,119.1,20.9,139.4,23.2z"/><path fill="#000000" d="M125,53.7c-3.2,1.8-3.2,1.6-3.2,35.9v32.1H89.9c-34.7,0-34.6,0-36.2,3.5c-1.5,3.2-0.3,7.1,2.7,8.4c1.2,0.6,10.2,0.8,33.5,0.8h31.9v31.9c0,34.7,0,34.6,3.5,36.2c2.1,0.9,3.6,0.9,5.7,0c3.5-1.6,3.5-1.5,3.5-36.2v-31.9h31.9c34.7,0,34.6,0,36.2-3.5c1.5-3.2,0.3-7.1-2.7-8.4c-1.2-0.6-10.2-0.8-33.5-0.8h-31.9V89.8c0-23.3-0.2-32.3-0.8-33.5C132.3,53.3,128.1,52,125,53.7z"/></g></g></g>
</svg>